<svg version="1.1" width="167" height="46" viewBox="0 0 167 46" xmlns="http://www.w3.org/2000/svg">
    <path class="i_sportisimo_znak" fill="#EE3E33" d="M117.13 9.333c1.36-1.758 2.719-3.157 5.779-5.094-3.599 1.378-7.898 3.875-10.536 6.133-2.319 1.977-3.978 3.855-4.119 6.212-.719-1.079-1.059-2.018-1.078-3.237 0-1.217.72-2.516 1.479-3.535H.865V8.513h108.83c2.021-2.177 4.9-3.894 9.017-5.413 4.437-1.638 8.897-2.297 13.215-2.416 2.199-.061 3.938.159 4.818.26-2.438.219-3.958.378-5.258.719 2.08.039 4.058.359 5.418 2.156-4.619.64-9.216 1.519-12.715 2.657-3.759 1.199-6.818 2.518-7.676 3.815-.24.38-.181 1.119.639 1.479 1.241.518 3.238.879 3.259 1.159.019.439-2.998 1.338-5.317 1.677.158-1.738.719-3.496 2.037-5.273zM145.62 8.554c.06-.2.08-.4.08-.618-.02-1.219-.359-2.159-1.08-3.237-.139 2.357-1.799 4.235-4.118 6.212-2.638 2.257-6.937 4.754-10.536 6.132 3.059-1.938 4.419-3.335 5.778-5.093 1.32-1.778 1.879-3.535 2.039-5.274-2.319.34-5.338 1.239-5.317 1.678.019.28 2.018.64 3.257 1.158.821.36.88 1.099.641 1.479-.86 1.298-3.919 2.617-7.678 3.815-3.498 1.138-8.096 2.018-12.713 2.658 1.358 1.796 3.338 2.116 5.416 2.157-1.299.339-2.818.498-5.237.718.86.08 2.6.32 4.799.26 4.318-.12 8.776-.78 13.214-2.417 4.537-1.698 7.617-3.596 9.656-6.152.498-.62 1.02-1.378 1.4-2.197h21.475V8.554H145.62z"/>
    <path class="i_sportisimo_text" fill="#FFF" d="M114.09 45.568h6.261V22.437c-2.268-.017-4.382-.247-6.261-.671v23.802zM135.64 39.764h-.076l-2.735-19.206a42.459 42.459 0 0 1-4.353 1.092 41.886 41.886 0 0 1-5.83.733v23.184h5.582V22.504h.076l3.469 23.063h7.167l4.036-22.988h.074l-.226 22.988h5.733V18.283h-9.858l-3.059 21.481zM110.88 31.549c-.502-.603-1.251-1.087-2.242-1.452-.994-.364-2.319-.759-3.98-1.186a23.943 23.943 0 0 1-1.131-.34c-.302-.1-.542-.238-.717-.414a1.363 1.363 0 0 1-.359-.679 4.874 4.874 0 0 1-.094-1.055v-1.808c0-.654.088-1.143.264-1.471.175-.326.678-.49 1.509-.49.401 0 .716.026.943.076a.882.882 0 0 1 .527.32c.126.165.208.422.246.773.038.352.056.829.056 1.432v1.319h5.583v-3.278c0-.956-.121-1.765-.359-2.432a3.5 3.5 0 0 0-1.207-1.639c-.566-.427-1.314-.74-2.244-.942-.931-.201-2.075-.301-3.433-.301-1.483 0-2.734.07-3.752.206-1.018.139-1.836.447-2.451.924-.618.478-1.057 1.181-1.32 2.111-.265.929-.396 2.185-.396 3.769v1.658c0 1.205.075 2.205.226 2.995.15.792.433 1.452.849 1.979.415.528 1.006.955 1.772 1.281.767.327 1.754.641 2.961.942a51.75 51.75 0 0 1 1.961.509c.478.138.848.295 1.113.471.264.176.434.402.508.679.076.276.113.653.113 1.13v2.94c0 .578-.13.993-.395 1.243-.263.252-.748.377-1.452.377-.452 0-.805-.05-1.056-.151-.252-.1-.434-.258-.547-.471s-.183-.484-.208-.81a16.794 16.794 0 0 1-.037-1.206v-1.96h-5.808v2.261c0 1.357.1 2.487.302 3.392.201.904.59 1.62 1.168 2.148.579.528 1.396.905 2.452 1.132 1.056.224 2.426.337 4.111.337 1.333 0 2.483-.093 3.45-.281.969-.189 1.773-.56 2.416-1.112.64-.553 1.112-1.339 1.413-2.356.302-1.017.452-2.342.452-3.975 0-1.759-.074-3.147-.226-4.165-.151-1.017-.478-1.827-.981-2.43M166.17 20.845a4.088 4.088 0 0 0-1.565-1.733c-.691-.426-1.54-.722-2.546-.885-1.006-.164-2.162-.245-3.47-.245-1.307 0-2.465.081-3.469.245-1.006.163-1.855.459-2.546.885a4.09 4.09 0 0 0-1.566 1.733c-.353.73-.527 1.647-.527 2.752v16.657c0 1.106.174 2.022.527 2.751a4.093 4.093 0 0 0 1.566 1.734c.691.427 1.54.722 2.546.885 1.004.163 2.162.245 3.469.245 1.308 0 2.464-.082 3.47-.245s1.855-.458 2.546-.885c.692-.428 1.213-1.005 1.565-1.734s.528-1.645.528-2.751V23.597c0-1.105-.176-2.022-.528-2.752zm-5.959 19.069c0 .504-.125.842-.377 1.018-.251.176-.666.264-1.245.264-.578 0-.993-.088-1.244-.264-.252-.176-.377-.514-.377-1.018V23.936c0-.503.125-.842.377-1.017.251-.176.666-.265 1.244-.265.579 0 .994.089 1.245.265.252.175.377.514.377 1.017v15.978zM15.421 31.549c-.502-.603-1.25-1.087-2.244-1.452-.993-.364-2.319-.759-3.978-1.186a23.324 23.324 0 0 1-1.132-.34c-.302-.1-.541-.238-.717-.414s-.296-.402-.359-.679a4.938 4.938 0 0 1-.094-1.055v-1.808c0-.654.088-1.143.264-1.471.176-.326.679-.49 1.509-.49.402 0 .717.026.943.076a.888.888 0 0 1 .528.32c.125.165.208.422.245.773.038.352.057.829.057 1.432v1.319h5.582v-3.278c0-.956-.12-1.765-.359-2.432a3.505 3.505 0 0 0-1.206-1.639c-.566-.427-1.314-.74-2.245-.942-.93-.201-2.074-.301-3.432-.301-1.484 0-2.735.07-3.752.206-1.018.139-1.836.447-2.452.924-.617.478-1.056 1.181-1.32 2.111-.264.929-.396 2.185-.396 3.769v1.658c0 1.205.076 2.205.226 2.995.151.792.434 1.452.85 1.979.414.528 1.005.955 1.771 1.281.767.327 1.754.641 2.961.942.829.202 1.483.371 1.962.509.477.138.848.295 1.112.471s.434.402.509.679c.076.276.113.653.113 1.13v2.94c0 .578-.132.993-.396 1.243-.264.252-.748.377-1.452.377-.452 0-.805-.05-1.055-.151a1.023 1.023 0 0 1-.548-.471c-.113-.213-.183-.484-.207-.81a15.636 15.636 0 0 1-.038-1.206v-1.96H.863v2.261c0 1.357.1 2.487.302 3.392.201.904.59 1.62 1.169 2.148.578.528 1.396.905 2.452 1.132 1.055.224 2.426.337 4.11.337 1.333 0 2.484-.093 3.451-.281.968-.189 1.773-.56 2.414-1.112.642-.553 1.113-1.339 1.414-2.356.302-1.017.453-2.342.453-3.975 0-1.759-.075-3.147-.226-4.165-.151-1.017-.478-1.827-.981-2.43M32.658 19.734c-1.195-.967-2.924-1.451-5.186-1.451h-9.015v27.285h6.261v-7.764h2.112c1.409 0 2.597-.119 3.564-.358.968-.238 1.754-.66 2.357-1.262.604-.603 1.038-1.432 1.302-2.488.265-1.055.396-2.399.396-4.032v-4.748c0-2.488-.598-4.215-1.791-5.182zm-4.696 11.173c0 .755-.12 1.276-.358 1.565-.239.289-.585.433-1.037.433h-1.849v-9.722h1.81c.554 0 .93.081 1.132.244.201.165.302.471.302.923v6.557zM49.894 19.112c-.692-.426-1.541-.722-2.547-.885-1.005-.164-2.162-.245-3.469-.245s-2.465.081-3.47.245c-1.006.163-1.855.459-2.546.885a4.088 4.088 0 0 0-1.565 1.733c-.352.73-.528 1.647-.528 2.752v16.657c0 1.106.176 2.022.528 2.751s.873 1.306 1.565 1.733c.691.428 1.54.723 2.546.886 1.005.163 2.163.245 3.47.245s2.464-.082 3.469-.245c1.006-.163 1.855-.458 2.547-.886a4.095 4.095 0 0 0 1.565-1.733c.352-.729.528-1.645.528-2.751V23.597c0-1.105-.176-2.022-.528-2.752a4.1 4.1 0 0 0-1.565-1.733zM45.5 39.914c0 .504-.127.842-.378 1.018s-.666.264-1.244.264c-.579 0-.994-.088-1.245-.264s-.377-.514-.377-1.018V23.936c0-.503.126-.842.377-1.018.251-.175.666-.264 1.245-.264.578 0 .993.089 1.244.264.251.176.378.515.378 1.018v15.978zM68.487 19.621c-.654-.49-1.534-.835-2.64-1.036-1.107-.202-2.502-.302-4.186-.302h-7.732v27.285h6.26v-9.422h1.056c1.056 0 1.779.126 2.17.377.389.251.585.666.585 1.243v7.802h6.26v-7.425c0-.828-.088-1.501-.264-2.015-.176-.515-.447-.93-.812-1.245a3.695 3.695 0 0 0-1.338-.715 21.61 21.61 0 0 0-1.848-.472v-.075a10.673 10.673 0 0 0 1.772-.489 3.429 3.429 0 0 0 1.339-.905c.365-.402.647-.936.849-1.602.201-.665.302-1.513.302-2.543v-3.28c0-1.28-.132-2.342-.396-3.185-.264-.84-.723-1.506-1.377-1.996zM64 29.099c0 .88-.158 1.494-.472 1.846-.315.352-1.025.528-2.131.528h-1.208v-8.517h1.886c.68 0 1.169.164 1.471.491.302.326.454.842.454 1.545v4.107zM71.531 23.182h4.375v22.386h6.261V23.182h4.376v-4.899H71.531zM88.084 45.567h6.261V18.283h-6.261z"/>
</svg>
